# xmcd CD database file
#
# Track frame offsets:
#	150
#	10610
#	20730
#	36600
#	49576
#	66517
#	82672
#	101685
#	113662
#	125728
#	144034
#	178106
#	206251
#	220725
#
# Disc length: 3481 seconds
#
# Revision: 0
# Processed by: cddbd v1.5.2PL0 Copyright (c) Steve Scherf et al.
# Submitted via: CDex 1.70beta2
#
DISCID=bc0d970e
DTITLE=Blattgold and David Gorol - Concierto para Quinteto
DYEAR=2010
DGENRE=Jazz
TTITLE0=George Gershwin - Porgy and Bess -1- Summertime
TTITLE1=George Gershwin - Porgy and Bess -2- A woman is a sometimes thing
TTITLE2=George Gershwin - Porgy and Bess -3- My man's gone now
TTITLE3=George Gershwin - Porgy and Bess -4- It ain't necessarily so
TTITLE4=George Gershwin - Porgy and Bess -5- Bess you is my woman
TTITLE5=George Gershwin - Porgy and Bess -6- Tempo di blues
TTITLE6=Willi Mortier - Quartett Nr. 1 -1- Vivo
TTITLE7=Willi Mortier - Quartett Nr. 1 -2- Andante
TTITLE8=Willi Mortier - Quartett Nr. 1 -3- Molto Vivo
TTITLE9=Astor Piazolla - Histoire du Tango -1- Bordell 1900
TTITLE10=Astor Piazolla - Histoire du Tango -2- Café 1930
TTITLE11=Astor Piazolla - Histoire du Tango -3- Night Club 1960
TTITLE12=Astor Piazolla - Histoire du Tango -4- Concert d´aujourd´hui
TTITLE13=Astor Piazolla - Concierto para Quinteto
EXTD=YEAR: 2010
EXTT0=
EXTT1=
EXTT2=
EXTT3=
EXTT4=
EXTT5=
EXTT6=
EXTT7=
EXTT8=
EXTT9=
EXTT10=
EXTT11=
EXTT12=
EXTT13=
PLAYORDER=
